<svg width="39" height="12" viewBox="0 0 39 12" fill="none" xmlns="http://www.w3.org/2000/svg">
<path d="M34.573 0.477539H27.1699C27.6012 2.92129 29.973 5.22129 32.5605 5.22129H38.4543C38.5262 5.00567 38.5262 4.64629 38.5262 4.43066C38.5262 2.27441 36.7293 0.477539 34.573 0.477539Z" fill="url(#paint0_linear_24_1580)"/>
<path d="M27.8167 5.65186V11.6175H31.4104V8.45498H34.5729C36.2979 8.45498 37.8073 7.23311 38.3104 5.65186H27.8167Z" fill="#4FAD50"/>
<path d="M15.167 0.477539V11.5463H18.3295C18.3295 11.5463 19.1201 11.5463 19.5514 10.7557C21.7076 6.51504 22.3545 5.22129 22.3545 5.22129H22.7857V11.5463H26.3795V0.477539H23.217C23.217 0.477539 22.4264 0.549418 21.9951 1.26817C20.1982 4.93379 19.192 6.80254 19.192 6.80254H18.7607V0.477539H15.167Z" fill="#4FAD50"/>
<path d="M0.0732422 11.6178V0.549072H3.66699C3.66699 0.549072 4.67325 0.54907 5.24825 2.13032C6.68575 6.29907 6.82951 6.87407 6.82951 6.87407C6.82951 6.87407 7.117 5.86782 8.41075 2.13032C8.98575 0.54907 9.99201 0.549072 9.99201 0.549072H13.5858V11.6178H9.99201V5.6522H9.56075L7.54826 11.6178H5.967L3.95451 5.6522H3.52326V11.6178H0.0732422Z" fill="#4FAD50"/>
<defs>
<linearGradient id="paint0_linear_24_1580" x1="27.1571" y1="2.88341" x2="38.5007" y2="2.88341" gradientUnits="userSpaceOnUse">
<stop stop-color="#27B1E6"/>
<stop offset="1" stop-color="#148ACA"/>
</linearGradient>
</defs>
</svg>
